<?xml version="1.0" encoding="UTF-8"?>
<svg width="174px" height="60px" viewBox="0 0 174 60" version="1.1" xmlns="http://www.w3.org/2000/svg" xmlns:xlink="http://www.w3.org/1999/xlink">
    <!-- Generator: Sketch 45.1 (43504) - http://www.bohemiancoding.com/sketch -->
    <title>Instagram Text Logo</title>
    <desc>Created with Sketch.</desc>
    <defs></defs>
    <g id="Page-1" stroke="none" stroke-width="1" fill="none" fill-rule="evenodd">
        <g id="Mobile" transform="translate(-93.000000, -177.000000)" fill="#115688">
            <g id="Instagram-Text-Logo" transform="translate(93.000000, 177.000000)">
                <g id="Layer_1">
                    <g id="Group">
                        <path d="M8.94184538,0.196917233 C5.38581176,1.90868581 1.47651429,6.73853459 0.241845378,12.8056688 C-1.32181513,20.4904814 5.1852,23.7402878 5.71889748,22.6763971 C6.3470521,21.4239901 4.55295126,21.0005844 4.18360336,17.0131785 C3.70634622,11.8630872 5.78995966,6.10846665 8.41253445,3.58349039 C8.90002689,3.11438381 8.87663193,3.76730221 8.87663193,4.97501644 C8.87663193,7.13505735 8.77281681,26.5223318 8.77281681,30.5688801 C8.77281681,36.0439185 8.57600672,37.7728249 8.22245042,39.4808971 C7.86421513,41.2121557 7.28869916,42.3818979 7.72472269,42.8328585 C8.21221513,43.3369128 10.2931966,42.1379356 11.498037,40.2057272 C12.9426756,37.8884214 13.4482992,35.1053693 13.5392471,32.0830594 C13.6489109,28.4397545 13.6442319,22.6585872 13.6489109,19.3610636 C13.6532975,16.3367375 13.6930689,7.48083863 13.6027059,2.15701658 C13.5807731,0.851179779 10.4291798,-0.518839944 8.94184538,0.196917233 L8.94184538,0.196917233 Z" id="Shape"></path>
                        <path d="M172.954245,28.9596026 C172.438387,28.9596026 172.203267,29.5705165 172.008504,30.5991234 C171.332682,34.175557 170.622938,34.982716 169.707318,34.982716 C168.684373,34.982716 167.764951,33.2118051 167.528955,29.6672949 C167.343257,26.8802104 167.373086,21.7486011 167.610545,16.6445467 C167.659089,15.5957776 167.407301,14.5580977 164.959311,13.5362116 C163.905953,13.0963401 162.374753,12.4494704 161.61237,14.5641464 C159.458571,20.5385346 158.615476,25.2820221 158.417203,27.2081818 C158.406968,27.3079845 158.300813,27.3281467 158.281805,27.0952736 C158.155472,25.5521952 157.872978,22.7476368 157.837886,16.8559135 C157.83116,15.7063336 157.619143,14.727796 156.514901,13.9266857 C155.79843,13.4065016 153.622699,12.4874425 152.839261,13.5812404 C152.160807,14.4757689 151.374444,16.8831324 150.557667,19.7367521 C149.893835,22.0557382 149.431492,23.6246914 149.431492,23.6246914 C149.431492,23.6246914 149.439973,17.3666886 149.448161,14.9929286 C149.451671,14.0973921 148.917096,13.7986559 148.755963,13.7448901 C148.030719,13.502944 146.600995,13.0986924 145.994481,13.0986924 C145.24555,13.0986924 145.062192,13.5795602 145.062192,14.2801958 C145.062192,14.3719337 144.944047,22.5194682 144.944047,28.2166265 C144.944047,28.4639492 144.944339,28.7341223 144.945217,29.0210972 C144.531126,31.6394916 143.188255,35.1940828 141.727825,35.1940828 C140.26564,35.1940828 139.576074,33.7081306 139.576074,26.9161663 C139.576074,22.9542991 139.679597,21.2311053 139.730188,18.3657243 C139.760017,16.7151143 139.817042,15.4472496 139.813533,15.1599386 C139.802713,14.2778435 138.475341,13.8332676 137.857714,13.6686098 C137.237163,13.50328 136.697909,13.438761 136.2768,13.466316 C135.680813,13.5049602 135.259412,13.9542406 135.259412,14.5722113 C135.259412,14.903543 135.262629,15.5332749 135.262629,15.5332749 C134.494982,14.1471254 133.26002,13.1823654 132.438857,12.9027833 C130.226279,12.1480459 127.917489,12.817094 126.176027,15.6169479 C124.791923,17.8418438 123.9576,20.3621156 123.629193,23.9825699 C123.389103,26.6291913 123.467476,29.3134488 123.894141,31.5833735 C123.378575,34.1446417 122.421429,35.1940828 121.373334,35.1940828 C119.851785,35.1940828 118.748713,32.3404631 118.8768,27.4047629 C118.961314,24.1583169 119.526595,21.8803273 120.144514,18.5844839 C120.408,17.1791804 120.193936,16.4439331 119.657022,15.7389291 C119.164558,15.0920593 118.115587,14.7620717 116.606904,15.1683395 C115.532491,15.4576667 113.996027,15.7695084 112.590867,16.0087662 C112.590867,16.0087662 112.675674,15.6199722 112.745274,14.9344583 C113.11082,11.3395427 109.71124,11.6312221 108.626592,12.779458 C107.979136,13.4649719 107.538434,14.2734751 107.37116,15.7271678 C107.105919,18.0337205 108.742982,19.1221419 108.742982,19.1221419 C108.205775,21.9482066 106.888931,25.6392286 105.529684,28.3080283 C104.801516,29.7378625 104.244131,30.7973848 103.525321,31.9237782 C103.522689,31.504405 103.520642,31.0850318 103.519472,30.6676748 C103.502803,24.7268902 103.571818,20.0512821 103.601939,18.3660603 C103.631768,16.7154504 103.689378,15.4815253 103.685869,15.1942143 C103.677973,14.5490248 103.350151,14.3050625 102.668188,13.9969172 C102.065183,13.7240558 101.352222,13.5352034 100.612649,13.4693403 C99.6794824,13.3860034 99.1168336,13.9545767 99.1317479,14.6273212 C99.1346723,14.7543429 99.1346723,15.534283 99.1346723,15.534283 C98.3670252,14.1481335 97.1320639,13.1833735 96.3109008,12.9037914 C94.0983227,12.149054 91.7895328,12.8181021 90.0480706,15.617956 C88.6642588,17.8428519 87.7579966,20.9649646 87.501237,23.955687 C87.2620235,26.7431076 87.3061815,29.111827 87.6322487,31.1072102 C87.2804471,33.1052816 86.2689076,35.1947549 85.1251866,35.1947549 C83.6630017,35.1947549 82.8310185,33.7088027 82.8310185,26.9168383 C82.8310185,22.9549711 82.9345412,21.2321134 82.9851328,18.3663964 C83.0149613,16.7157864 83.0719866,15.4479217 83.0684773,15.1606107 C83.0576571,14.2785156 81.7302857,13.8339397 81.1126588,13.6692819 C80.4663731,13.4972314 79.9084034,13.4343926 79.4799832,13.4706845 C78.9144101,13.5190737 78.5172807,14.1004164 78.5172807,14.5342392 L78.5172807,15.534283 C77.7496336,14.1481335 76.5146723,13.1833735 75.6935092,12.9037914 C73.4809311,12.149054 71.1850084,12.8288553 69.430679,15.617956 C68.2866655,17.4365841 67.3605176,19.4528015 66.8838454,23.9160348 C66.7461076,25.2057418 66.6852807,26.4137921 66.6931765,27.5425378 C66.2369748,30.7483235 64.2223765,34.4430419 62.5739092,34.4430419 C61.6094521,34.4430419 60.6909076,32.2937541 60.6909076,27.7125721 C60.6909076,21.6101541 61.0198992,12.9219373 61.0751697,12.084535 C61.0751697,12.084535 63.1576134,12.0438746 63.560884,12.0384981 C64.5999126,12.0253927 65.5406824,12.0536197 66.9239092,11.9722989 C67.6178622,11.9316385 68.2863731,9.06995398 67.570195,8.71577179 C67.2458824,8.5554825 64.9514218,8.41501936 64.0422353,8.39284097 C63.2775126,8.37301483 61.148279,8.1918913 61.148279,8.1918913 C61.148279,8.1918913 61.3392403,2.42483746 61.3839832,1.81560377 C61.4217076,1.30751698 60.8499933,1.04641683 60.5221714,0.887471693 C59.7246958,0.500357952 59.0117345,0.314529915 58.1662992,0.114252319 C56.9983059,-0.162641537 56.4681176,0.108203667 56.3648874,1.24131785 C56.2090185,2.96014318 56.1283059,7.99598218 56.1283059,7.99598218 C55.2708807,7.99598218 52.3432941,7.80343341 51.4858689,7.80343341 C50.6889782,7.80343341 49.8295059,11.7400979 50.9308235,11.7884871 C52.1979529,11.8449412 54.4061445,11.8936664 55.870084,11.9444079 C55.870084,11.9444079 55.8048706,20.7761122 55.8048706,23.5027102 C55.8048706,23.7927095 55.8057479,24.0719556 55.8075025,24.3431368 C55.0018387,29.1686171 52.1637378,31.7752502 52.1637378,31.7752502 C52.7731765,28.582906 51.5282723,26.1856235 49.286158,24.1563007 C48.4597311,23.408284 46.8291025,21.9928994 45.0042958,20.4414201 C45.0042958,20.4414201 46.061163,19.2444591 46.9984235,16.8360874 C47.6625479,15.1303674 47.6912067,13.178333 46.0608706,12.7478706 C43.3678185,12.0364818 41.1467597,14.3090949 40.4843899,16.7356125 C39.971163,18.6157353 40.244884,20.0102856 41.2502824,21.4596099 C41.323684,21.5654613 41.4032269,21.673329 41.4854017,21.7822047 C40.8774252,23.1287019 40.0422252,24.9416174 39.3348202,26.347593 C37.3711059,30.2509898 35.888158,33.3384908 34.7669546,33.3384908 C33.8709277,33.3384908 33.8832101,30.2039448 33.8832101,27.2690043 C33.8832101,24.7389875 34.045805,20.9350573 34.1756471,16.9967127 C34.2186353,15.6942362 33.6516,14.9522682 32.7014723,14.2801958 C32.1242017,13.8719118 30.8921647,13.0691212 30.1789109,13.0691212 C29.1109311,13.0691212 26.0295227,13.2361312 23.1180202,22.9136387 C22.7510118,24.1334502 22.0301546,26.3559939 22.0301546,26.3559939 L22.0921513,14.718387 C22.0921513,14.4455256 21.9655261,14.1814011 21.6760134,14.0009497 C21.1853042,13.6951567 19.8748941,13.0691212 18.7098252,13.0691212 C18.1547798,13.0691212 17.8775496,13.3658412 17.8775496,13.957265 L17.7757815,32.1647162 C17.7757815,33.5481774 17.8070723,35.1621594 17.9263866,35.8678355 C18.0448235,36.5748557 18.2369546,37.1494777 18.4749983,37.4915626 C18.7124571,37.8329754 18.9873479,38.0934035 19.4406252,38.2009351 C19.8623193,38.3007378 22.1716941,38.6414786 22.2918857,37.6273212 C22.4357647,36.4118782 22.4410286,35.0973044 23.6537647,30.1945358 C25.5417378,22.5614727 28.0031798,18.8371831 29.1606454,17.5145445 C29.3627193,17.2833516 29.5937445,17.2695741 29.5826319,17.6479509 C29.5335025,19.3210753 29.359795,23.5030462 29.2425277,27.0556213 C28.9290353,36.5627584 30.4342084,38.3249324 32.5850824,38.3249324 C34.2306252,38.3249324 36.5502353,36.4458178 39.0368269,31.690233 C40.5867429,28.7263935 42.091916,25.8203521 43.1736403,23.7258383 C43.9272504,24.5276207 44.7726857,25.3902257 45.618121,26.3119731 C47.5821277,28.4538681 48.2269513,30.4892395 47.799116,32.4201037 C47.471879,33.8963109 46.2395496,35.4175469 44.0462723,33.9389875 C43.407005,33.507853 43.1338689,33.1745051 42.4913849,32.6879246 C42.1460168,32.4268245 41.6190454,32.348528 41.302921,32.6223975 C40.4814655,33.3337863 40.0118118,34.2390679 39.7436471,35.3594127 C39.4827933,36.4495142 40.432921,37.0258163 41.4178487,37.5298707 C42.265916,37.9636935 44.0886756,38.3568559 45.2511126,38.4015487 C49.780084,38.5756155 53.408642,35.8886697 55.9341277,28.9575864 C56.3865277,34.9433998 58.3104706,38.330645 61.6539025,38.330645 C63.8889983,38.330645 66.1299429,35.0109431 67.1098992,31.7450069 C67.3912235,33.0763825 67.8076538,34.2336913 68.3454454,35.2129009 C70.9215227,39.9029586 75.9189782,38.8935057 78.4292571,34.9111403 C79.2050924,33.6805756 79.3235294,33.2380159 79.3235294,33.2380159 C79.6896605,36.9985974 82.3251025,38.3128351 83.8340773,38.3128351 C85.5240706,38.3128351 87.269042,37.3947841 88.4920134,34.231003 C88.6353076,34.574432 88.7917613,34.9024034 88.9625445,35.2132369 C91.5386218,39.9032946 96.5360773,38.8938418 99.0463563,34.9114764 C99.1645008,34.7243042 99.2674387,34.5549419 99.3569244,34.4027175 L99.4306185,36.8732559 C99.4306185,36.8732559 97.9988471,38.3827307 97.1197815,39.3088465 C93.2458689,43.3886624 90.3027832,46.4832201 90.0863798,50.0868727 C89.8111966,54.6818321 93.0522756,56.3895683 95.5078689,56.6133684 C98.1111429,56.850946 100.344484,55.1969757 101.715429,52.8820221 C102.921731,50.8449704 103.711018,46.4600336 103.653408,42.1288626 C103.630306,40.3945796 103.592289,38.1895098 103.562168,35.825831 C104.922,34.0112353 106.45437,31.717452 107.864793,29.0331945 C109.402427,26.1073271 111.050017,22.1787274 111.893405,19.1211338 C111.893405,19.1211338 113.324884,19.1352473 114.852575,19.0203229 C115.341237,18.9836949 115.481314,19.0979473 115.391244,19.5099277 C115.282165,20.0069253 113.46116,28.0781796 115.123079,33.4547593 C116.260659,37.1353642 118.825039,38.3195558 120.345418,38.3195558 C122.12519,38.3195558 123.827466,36.7751333 124.739869,34.481686 C124.849825,34.7374096 124.965045,34.9847323 125.090208,35.2132369 C127.666286,39.9032946 132.646195,38.8881292 135.17402,34.9114764 C135.744272,34.0142596 136.068292,33.238352 136.068292,33.238352 C136.610763,37.1303236 139.244743,38.3326613 140.753425,38.3326613 C142.324982,38.3326613 143.81641,37.5923734 145.026222,34.3022427 C145.076813,35.7512309 145.156356,36.9354226 145.282104,37.3087589 C145.358723,37.5372635 145.805274,37.8239024 146.130171,37.9623493 C147.567792,38.5746073 149.034071,38.2852802 149.576541,38.1592666 C149.952323,38.0718971 150.245345,37.7254438 150.285408,36.8309153 C150.390393,34.4820221 150.326057,30.5356125 150.945731,27.6023523 C151.985929,22.6800935 152.956235,20.7703996 153.416531,19.8254657 C153.674168,19.2958726 153.96485,19.2085032 153.975378,19.7690116 C153.996726,20.9031339 154.045855,24.233589 154.449126,28.7082475 C154.745072,31.9990503 155.140155,33.9443641 155.443997,34.5599825 C156.311072,36.3201403 157.381976,36.4034772 158.254024,36.4034772 C158.808484,36.4034772 159.968874,36.2277303 159.865059,35.1073855 C159.814467,34.5613266 159.903076,31.1865147 160.928652,26.3371758 C161.598333,23.1703704 162.714857,20.3093579 163.117543,19.262941 C163.266101,18.8771715 163.335116,19.1812842 163.332776,19.2404266 C163.24797,21.4213018 163.057593,28.5546789 163.830797,32.4560596 C164.878891,37.7415735 167.910585,38.3326613 168.96716,38.3326613 C171.222726,38.3326613 173.067418,36.3611367 173.688847,31.1734093 C173.840037,29.9236906 173.61837,28.9596026 172.954245,28.9596026 L172.954245,28.9596026 Z M78.4710756,25.7524728 C78.3418185,28.4978888 77.8756739,30.7930163 77.1276202,32.460092 C75.7742218,35.4773614 73.0963765,36.4340565 71.9158084,32.0743224 C71.0645244,28.9307035 71.3543294,24.6438893 71.7084706,22.3285996 C72.2339798,18.891957 73.5499462,16.4556944 75.604316,16.6865512 C77.7145412,16.9237928 78.7404101,20.0398568 78.4710756,25.7524728 L78.4710756,25.7524728 Z M99.0881748,25.7921251 C98.9676908,28.3846446 98.3828168,30.9889254 97.7447193,32.4604281 C96.4275832,35.4985317 93.6739966,36.4481701 92.5329076,32.0746585 C91.7526857,29.0862883 91.9395529,25.2188472 92.3255697,22.7822485 C92.8265143,19.6201476 94.0407126,16.6868873 96.2214151,16.6868873 C98.3415832,16.6865512 99.3870454,19.3593834 99.0881748,25.7921251 L99.0881748,25.7921251 Z M99.6262588,43.4793922 C99.5976,48.2087662 98.9501445,52.3554533 97.5610689,53.5598071 C95.590921,55.2675433 92.9429042,53.9865732 93.4912235,50.535481 C93.9763765,47.4815838 96.270837,44.3628315 99.6321076,40.5521806 C99.6318151,40.5521806 99.6388336,41.4211703 99.6262588,43.4793922 L99.6262588,43.4793922 Z M135.216424,25.81968 C135.101788,28.6659069 134.553469,30.8908028 133.872968,32.460092 C132.555539,35.4981956 129.821546,36.4414493 128.661156,32.0743224 C128.028615,29.6938418 127.999079,25.7178611 128.453818,22.3958069 C128.916746,19.011922 130.209318,16.4556944 132.349664,16.6865512 C134.460766,16.9140478 135.448911,20.0398568 135.216424,25.81968 L135.216424,25.81968 Z" id="Shape"></path>
                    </g>
                    <text id="PWA" font-family="Roboto-Bold, Roboto" font-size="18" font-weight="bold" letter-spacing="0.1875">
                        <tspan x="113.67627" y="60">PWA</tspan>
                    </text>
                </g>
            </g>
        </g>
    </g>
</svg>